<?xml version="1.0" standalone="no"?>
<!DOCTYPE svg PUBLIC "-//W3C//DTD SVG 20010904//EN"
 "http://www.w3.org/TR/2001/REC-SVG-20010904/DTD/svg10.dtd">
<svg version="1.0" xmlns="http://www.w3.org/2000/svg"
 width="1266.000000pt" height="98.000000pt" viewBox="0 0 1266.000000 98.000000"
 preserveAspectRatio="xMidYMid meet">

<g transform="translate(0.000000,98.000000) scale(0.100000,-0.100000)"
fill="#000000" stroke="none">
<path d="M2900 500 l0 -480 65 0 65 0 0 480 0 480 -65 0 -65 0 0 -480z"/>
<path d="M4100 500 l0 -480 60 0 60 0 0 480 0 480 -60 0 -60 0 0 -480z"/>
<path d="M6180 500 l0 -480 65 0 65 0 0 245 0 245 75 0 75 0 0 55 0 55 -75 0
-75 0 0 180 0 180 -65 0 -65 0 0 -480z"/>
<path d="M7170 910 l0 -70 -84 0 -83 0 5 50 5 50 -232 0 -231 0 0 -55 0 -55
160 0 c179 0 176 1 140 -70 -47 -92 -143 -167 -275 -215 -41 -15 -75 -29 -75
-31 0 -2 10 -24 22 -50 27 -54 32 -54 154 -3 102 43 198 118 254 202 l45 67
97 0 98 0 0 -50 0 -50 -116 0 -115 0 3 -52 3 -53 113 -3 112 -3 0 -54 0 -55
65 0 65 0 0 285 0 285 -65 0 -65 0 0 -70z"/>
<path d="M9300 500 l0 -480 65 0 65 0 0 480 0 480 -65 0 -65 0 0 -480z"/>
<path d="M10080 855 l0 -125 -45 0 -44 0 -3 98 -3 97 -55 0 -55 0 -3 -77 -3
-78 -74 0 -74 0 -3 78 -3 77 -57 3 -58 3 0 -251 0 -250 195 0 195 0 0 95 0 95
45 0 45 0 0 -170 0 -170 60 0 60 0 0 350 0 350 -60 0 -60 0 0 -125z m-210
-260 l0 -65 -75 0 -75 0 0 65 0 65 75 0 75 0 0 -65z"/>
<path d="M10270 615 l0 -365 60 0 60 0 0 365 0 365 -60 0 -60 0 0 -365z"/>
<path d="M4470 795 l0 -175 335 0 335 0 0 50 0 50 -272 2 -273 3 -3 123 -3
122 -59 0 -60 0 0 -175z"/>
<path d="M1392 773 l3 -178 133 -3 132 -3 0 -44 0 -45 -190 0 -190 0 0 -55 0
-55 445 0 445 0 0 55 0 55 -190 0 -190 0 0 45 0 44 138 3 137 3 3 52 3 53
-278 2 -278 3 -3 67 -3 68 273 2 273 3 3 53 3 52 -336 0 -335 0 2 -177z"/>
<path d="M7500 900 l0 -50 140 0 c79 0 140 -4 140 -9 0 -18 -53 -72 -94 -95
-41 -24 -117 -49 -188 -61 l-38 -6 25 -49 c28 -56 33 -57 120 -35 92 24 159
59 214 110 l50 47 35 -39 c45 -50 111 -86 206 -112 109 -31 114 -30 138 29 12
28 18 50 14 50 -4 0 -37 7 -74 14 -83 18 -172 61 -204 99 -45 53 -38 57 111
57 l135 0 0 50 0 50 -365 0 -365 0 0 -50z"/>
<path d="M2414 911 c-52 -24 -108 -90 -136 -160 -29 -75 -31 -251 -4 -326 45
-124 125 -189 230 -189 104 1 172 50 222 159 39 85 46 232 15 332 -24 82 -83
156 -146 184 -51 24 -129 24 -181 0z m145 -116 c17 -8 39 -34 52 -62 21 -42
24 -62 23 -153 -1 -119 -14 -161 -66 -205 -27 -23 -39 -26 -73 -22 -78 11
-119 89 -119 232 -1 169 81 263 183 210z"/>
<path d="M8814 911 c-52 -24 -108 -90 -136 -160 -29 -75 -31 -251 -4 -326 45
-124 125 -189 230 -189 104 1 172 50 222 159 39 85 46 232 15 332 -24 82 -83
156 -146 184 -51 24 -129 24 -181 0z m145 -116 c17 -8 39 -34 52 -62 21 -42
24 -62 23 -153 -1 -119 -14 -161 -66 -205 -27 -23 -39 -26 -73 -22 -78 11
-119 89 -119 232 -1 169 81 263 183 210z"/>
<path d="M10602 653 l3 -268 340 0 340 0 3 53 3 52 -280 0 -281 0 0 55 0 55
263 2 262 3 3 53 3 52 -265 0 -266 0 0 50 0 50 273 2 272 3 3 53 3 52 -341 0
-340 0 2 -267z"/>
<path d="M3490 700 l0 -210 95 0 95 0 0 -80 0 -80 -130 0 c-144 0 -136 5 -124
-72 l7 -38 166 0 c91 0 229 7 306 15 77 8 144 15 149 15 9 0 3 87 -7 96 -3 3
-56 1 -119 -4 -62 -5 -116 -8 -120 -5 -5 2 -8 38 -8 79 l0 74 101 0 100 0 -3
53 -3 52 -192 3 -193 2 0 100 0 100 190 0 190 0 0 55 0 55 -250 0 -250 0 0
-210z"/>
<path d="M5562 848 l3 -53 103 -3 102 -3 0 -73 c0 -166 -86 -318 -226 -402
-18 -11 -17 -14 16 -62 l34 -51 39 22 c57 32 142 129 174 197 16 33 30 60 33
60 3 0 13 -19 23 -41 11 -22 37 -62 58 -90 39 -48 124 -118 145 -119 6 0 26
21 44 47 31 43 33 47 16 57 -136 81 -226 237 -226 392 l0 64 100 0 100 0 0 55
0 55 -271 0 -270 0 3 -52z"/>
<path d="M7420 495 l0 -55 445 0 445 0 0 55 0 55 -445 0 -445 0 0 -55z"/>
<path d="M4350 465 l0 -55 445 0 445 0 0 55 0 55 -445 0 -445 0 0 -55z"/>
<path d="M6637 383 c-4 -3 -7 -28 -7 -55 l0 -48 270 0 270 0 0 -130 0 -130 65
0 65 0 0 185 0 185 -328 0 c-181 0 -332 -3 -335 -7z"/>
<path d="M7714 376 c-79 -18 -114 -36 -153 -81 -27 -31 -31 -43 -31 -91 0 -50
4 -59 38 -95 61 -64 128 -83 297 -83 169 0 236 19 298 83 33 36 37 46 37 92 0
83 -44 133 -147 166 -68 21 -262 26 -339 9z m323 -119 c61 -32 52 -83 -19
-112 -66 -27 -247 -26 -310 2 -50 23 -66 50 -48 83 6 11 12 20 13 20 1 0 20 7
42 15 57 22 277 16 322 -8z"/>
<path d="M9740 205 l0 -165 341 0 340 0 -3 53 -3 52 -277 3 -278 2 0 110 0
110 -60 0 -60 0 0 -165z"/>
<path d="M1390 190 l0 -150 346 0 345 0 -3 52 -3 53 -282 3 -283 2 0 95 0 95
-60 0 -60 0 0 -150z"/>
<path d="M4460 190 l0 -150 345 0 345 0 0 55 0 55 -280 0 -280 0 0 95 0 95
-65 0 -65 0 0 -150z"/>
<path d="M10500 195 l0 -55 446 0 445 0 -3 53 -3 52 -442 3 -443 2 0 -55z"/>
</g>
</svg>
